<?xml version="1.0" encoding="UTF-8"?>
<svg id="Layer_1" data-name="Layer 1" xmlns="http://www.w3.org/2000/svg" version="1.1" viewBox="0 0 500 420">
  <defs>
    <style>
      .cls-1 {
        fill: #5c324b;
        stroke-width: 0px;
      }
    </style>
  </defs>
  <path class="cls-1" d="M290.68,206.34c.62.77,1.74.9,2.51.29h0c14.68-11.69,17.11-33.07,5.42-47.76l-89.14-111.94c-.62-.77-1.74-.9-2.51-.29-14.68,11.69-17.11,33.07-5.42,47.76l89.14,111.94Z"/>
  <path class="cls-1" d="M288.4,117.34c.62.77,1.74.9,2.51.29,14.68-11.69,17.11-33.07,5.42-47.76l-44.88-56.36c-.62-.77-1.74-.9-2.51-.28l-25.19,20.06c-.77.62-.9,1.74-.28,2.51l64.94,81.55Z"/>
  <path class="cls-1" d="M276.69,217.49l-64.94-81.55c-.62-.77-1.74-.9-2.51-.29-14.68,11.69-17.11,33.07-5.42,47.76l44.88,56.36c.62.77,1.74.9,2.51.29l25.19-20.06c.77-.62.9-1.74.29-2.51Z"/>
  <path class="cls-1" d="M396.93,345.63h-18.3c-.63,0-1.15.51-1.15,1.15v.07c0,.59.45,1.07,1.03,1.14,7.88.94,6.98,3.66,3.12,10.17-1.13,2-3.02,4.97-4.53,7.34-.23.36-.23.81-.02,1.18l.42.73c.43.74,1.49.77,1.95.05,2.01-3.1,4.4-6.68,6.04-9.27,2.96-4.68,5.93-9.35,11.57-10.21.58-.09,1.02-.55,1.02-1.14v-.07c0-.63-.51-1.15-1.15-1.15Z"/>
  <path class="cls-1" d="M50.26,373.09c-4.01-1.53-7.77-2.52-11.77-4.13-7.14-2.51-10.93-7.84-8.09-15.2,2.49-6.06,10.8-7.61,16.25-4.95,5.1,2.51,8.42,7.71,10.4,12.89.19.49.65.81,1.17.81h.08c.69,0,1.26-.56,1.26-1.26v-15.54h-1.41c-.42,0-.81.21-1.04.55-.32.47-.67.95-1.02,1.41-.39.5-1.08.61-1.63.29-9.84-5.73-26.64-4.42-32.19,6.75-4.53,9.01.17,20.19,9.67,23.67,4.38,1.69,7.74,2.64,12.14,4.3,4.68,1.57,9.24,4.68,9,10.18.32,9.04-9.16,13.47-17.17,10.92-6.85-1.84-10.96-8.08-13.34-14.41-.18-.49-.65-.82-1.17-.82-.7,0-1.27.57-1.26,1.28l.25,16.68h1.24c.4,0,.77-.18,1-.5.37-.5.79-1.06,1.21-1.55.38-.46,1.03-.55,1.56-.27,4.33,2.3,9.35,2.99,14.8,2.99,8.22.08,16.83-2.61,20.61-10.15,4.62-9.84-.2-20.5-10.58-23.93Z"/>
  <path class="cls-1" d="M324.34,404.2c-2.25-.39-4.39-1.19-6.1-2.38-5.69-4.27-10.43-13.33-14.92-19.3-.93-1.27-1.89-2.52-2.99-3.59-.6-.59-.44-1.59.33-1.93,4.23-1.84,8.06-4.66,9.95-8.96,3.22-7.4-.13-16.47-7.31-19.85-5.62-2.99-11.35-2.47-18.03-2.65-7.2-.03-15.07.09-22.21.08-.65,0-1.17.53-1.17,1.18v.07c0,.58.41,1.07.98,1.16,2.18.34,4.02.53,5.61,2.12.1.1.18.21.25.33,1.37,2.56.92,6.36,1.08,9.27-.01,3.68.04,22.44-.04,25.7-.22,4.93.19,10.19-.76,14.89-.75,2.75-4.02,3.33-6.66,3.81-.56.1-.96.59-.96,1.16v.08c0,.65.53,1.18,1.18,1.18h25.58c.65,0,1.18-.53,1.18-1.18,0-.61-.46-1.13-1.07-1.17-2.86-.2-5.52-1.15-6.9-3.13-1.24-2.11-.7-4.53-.95-7.28-.11-3.1-.08-9.86-.08-13.97,0-.67.56-1.2,1.22-1.17.59.03,1.14.09,2.16.31,2.89.53,5.28,3.23,7.24,5.36,4.58,5.17,7.47,9.95,11.26,15.62.67.95,1.2,1.76,1.69,2.48,1.75,2.58,4.67,4.12,7.79,4.12h12.44c.65,0,1.18-.53,1.18-1.18v-.05c0-.58-.43-1.06-1-1.16ZM295.64,372.44c-1.19.88-2.64,1.59-4.33,2.12-3.19,1.08-6.35,1.33-9.75,1.42-.67.02-1.21-.52-1.21-1.18.07-8.2-.25-17.29.44-25.33.05-.57.51-1.03,1.08-1.07,3.68-.28,7.9-.02,11.24,1.57,9.05,3.7,10.32,16.88,2.52,22.48Z"/>
  <path class="cls-1" d="M478.99,387.98l-.05-.02c-.6-.18-1.23.14-1.46.73-2.44,6.39-6.06,12.27-13.33,13.93-3.55.99-8.26,1.15-11.84,1.21-2.85-.1-6.64-.35-9.09-1.68-.23-.12-.41-.31-.51-.55-.9-2.07-.58-5.4-.78-7.82-.08-8.48.06-36.01.16-39.27-.08-4.43,4.07-5.97,7.67-6.51.58-.09,1-.59,1-1.18,0-.66-.53-1.19-1.19-1.19h-25.47c-.66,0-1.19.53-1.19,1.19v.02c0,.59.43,1.09,1.01,1.18,2.3.33,4.76,1,6.25,2.71.07.08.13.16.18.25,1.01,1.67.88,3.94.97,5.98,0,0-.07,30.06-.12,32.84-.2,4,.28,7.85-1.32,11.36-.06.14-.15.27-.26.38-1.51,1.56-4.09,2.24-6.33,2.65-.56.1-.97.6-.97,1.18v.03c0,.66.53,1.19,1.19,1.19h48.37c2.8,0,5.2-2.01,5.69-4.76l2.24-12.49c.11-.6-.25-1.18-.83-1.35Z"/>
  <path class="cls-1" d="M379.84,404.19c-1.1-.21-2.19-.48-3.36-.82-1.16-.34-2.07-1.02-2.82-2.11-.9-1.34-.69-5.35-.76-7.39v-14.36c0-1.31-.33-2.6-.96-3.75l-.67-1.22c-4.17-6.93-8.8-13.98-12.62-20.95-.91-1.67-1.1-2.5-1.1-2.89.09-2.23,3.75-2.49,6.08-2.66.63-.05,1.11-.57,1.11-1.2,0-.66-.54-1.2-1.2-1.2h-24.14c-.66,0-1.2.54-1.2,1.2v.03c0,.57.41,1.08.98,1.17,5.02.78,7.23,6.57,10.13,10.51,4.2,6.42,8.78,14.31,12.89,20.81.12.2.19.42.19.66,0,4.71-.03,8.56-.17,12.62-.12,2.57.18,5.99-.87,8.3-.06.13-.14.25-.23.36-1.96,2.24-3.67,2.59-6.19,2.91-.6.08-1.04.59-1.04,1.19h0c0,.67.54,1.21,1.2,1.21h24.55c.66,0,1.2-.54,1.2-1.2v-.02c0-.58-.41-1.07-.98-1.18Z"/>
  <path class="cls-1" d="M215.38,363.08c-.97,6.22-5.39,10.44-11.55,10.73-.66.03-1.17.61-1.17,1.28v.62c0,.66.51,1.23,1.16,1.25,6.39.21,10.03,5.73,11.49,11.58.14.57.63.97,1.22.97h.09c.69,0,1.26-.56,1.26-1.26v-25.02c0-.69-.56-1.26-1.26-1.26-.63,0-1.15.48-1.24,1.1Z"/>
  <path class="cls-1" d="M233.07,389.21l-1.04-.28-.29.51c-6.5,11.35-11.83,14.72-24.68,14.4-2.54-.06-7.22-.14-8.82-1.59-.16-.15-.26-.34-.31-.55-.98-4.42-1.18-42.64-.79-52.01.02-.61.49-1.1,1.1-1.15,6-.47,13.72-.28,18.54,1.32.07.02.13.05.19.08,3.63,1.78,7.92,5.67,11.97,10.69.36.44.97.59,1.48.33l.13-.06c.57-.28.82-.96.58-1.55l-3.85-9.35c-1.08-2.63-3.65-4.35-6.5-4.35h-40.92c-.67,0-1.21.54-1.21,1.21h0c0,.61.45,1.12,1.04,1.21,2.09.32,3.74.38,5.29,1.93.11.11.2.23.26.37,1.4,3.81,1.02,36.72.97,39.44-.19,4.01.29,7.79-1.24,11.34-.06.15-.16.29-.27.41-1.47,1.55-3.66,2.24-5.81,2.64-.57.11-.98.61-.98,1.19,0,.67.54,1.21,1.21,1.21h45.23c3.2,0,5.99-2.16,6.8-5.25l2.79-10.66c.17-.64-.21-1.3-.86-1.48Z"/>
  <path class="cls-1" d="M144.11,346.02c-4.47.42-9.14.27-13.44.35-3.1.02-6.65.02-10.32,0-3.68.01-7.22.02-10.32,0-4.3-.09-8.97.06-13.44-.35-3.27-.31-6.22,1.95-6.73,5.19l-1.57,9.97c-.09.58.25,1.14.8,1.32.62.21,1.27-.13,1.5-.74,1.34-3.47,3.77-6.94,6.18-9.54,2.51-2.34,4.76-2.68,8.39-2.84,2.65-.04,5.8-.09,8.55-.09.65,0,1.17.53,1.16,1.18-.03,7.3-.16,40.73-.16,42.15-.13,2.54.19,5.87-.87,8.14-.06.13-.14.25-.24.35-2.05,2.34-4.33,2.73-7.02,3.08-.59.08-1.04.59-1.04,1.19v.02c0,.66.54,1.2,1.2,1.2h27.21c.66,0,1.2-.54,1.2-1.2v-.02c0-.6-.44-1.11-1.04-1.19-2.69-.35-4.97-.74-7.02-3.08-.09-.11-.18-.23-.24-.35-1.06-2.27-.74-5.6-.87-8.14,0-1.42-.13-34.86-.16-42.15,0-.65.51-1.18,1.16-1.18,2.75,0,5.9.05,8.55.09,3.63.16,5.87.5,8.39,2.84,2.41,2.6,4.83,6.07,6.18,9.54.23.61.89.94,1.5.74.55-.18.89-.74.8-1.32l-1.57-9.97c-.51-3.24-3.46-5.5-6.73-5.19Z"/>
</svg>