<?xml version="1.0" encoding="UTF-8"?>
<svg id="Layer_1" data-name="Layer 1" xmlns="http://www.w3.org/2000/svg" version="1.1" viewBox="0 0 220 420">
  <defs>
    <style>
      .cls-1 {
        fill: #5c324b;
        stroke-width: 0px;
      }
    </style>
  </defs>
  <path class="cls-1" d="M182.53,351.25c1.1,1.38,3.11,1.61,4.49.51h0c26.23-20.89,30.56-59.08,9.67-85.31L37.47,66.49c-1.1-1.38-3.11-1.61-4.49-.51-26.23,20.89-30.56,59.08-9.67,85.31l159.23,199.96Z"/>
  <path class="cls-1" d="M178.46,192.25c1.1,1.38,3.11,1.61,4.49.51,26.23-20.89,30.56-59.08,9.67-85.31L112.45,6.78c-1.1-1.38-3.11-1.61-4.49-.51l-44.99,35.83c-1.38,1.1-1.61,3.11-.51,4.49l115.99,145.67Z"/>
  <path class="cls-1" d="M157.54,371.15L41.54,225.49c-1.1-1.38-3.11-1.61-4.49-.51-26.23,20.89-30.56,59.08-9.67,85.31l80.17,100.67c1.1,1.38,3.11,1.61,4.49.51l44.99-35.83c1.38-1.1,1.61-3.11.51-4.49Z"/>
</svg>